<svg height="23px" viewBox="0 0 15 18" version="1.1" xmlns="http://www.w3.org/2000/svg" xmlns:xlink="http://www.w3.org/1999/xlink">
      <g id="Symbols" stroke="none" stroke-width="1" fill="none" fill-rule="evenodd">
        <g id="Download" transform="translate(-260.000000, -300.000000)" fill="#C4C4C4">
          <g id="bt_scan">
            <g transform="translate(209.000000, 276.000000)">
              <g id="Group-3" transform="translate(26.000000, 24.000000)">
                <path d="M30.2521307,3.78196045 C30.3657677,3.78196045 30.4634229,3.74112279 30.5450995,3.65944624 C30.626776,3.5777697 30.6676137,3.48011442 30.6676137,3.36647749 C30.6676137,3.25284056 30.626776,3.15518528 30.5450995,3.07350874 C30.4634229,2.99183219 30.3657677,2.95099453 30.2521307,2.95099453 C30.1384938,2.95099453 30.0426141,2.99183219 29.9644887,3.07350874 C29.8863633,3.15518528 29.8473012,3.25284056 29.8473012,3.36647749 C29.8473012,3.48011442 29.8863633,3.5777697 29.9644887,3.65944624 C30.0426141,3.74112279 30.1384938,3.78196045 30.2521307,3.78196045 Z M34.7478694,3.78196045 C34.8615063,3.78196045 34.9573861,3.74112279 35.0355114,3.65944624 C35.1136368,3.5777697 35.1526989,3.48011442 35.1526989,3.36647749 C35.1526989,3.25284056 35.1136368,3.15518528 35.0355114,3.07350874 C34.9573861,2.99183219 34.8615063,2.95099453 34.7478694,2.95099453 C34.6342325,2.95099453 34.5365772,2.99183219 34.4549006,3.07350874 C34.3732241,3.15518528 34.3323864,3.25284056 34.3323864,3.36647749 C34.3323864,3.48011442 34.3732241,3.5777697 34.4549006,3.65944624 C34.5365772,3.74112279 34.6342325,3.78196045 34.7478694,3.78196045 Z M26.0973011,5.74218773 C26.3955981,5.74218773 26.6512774,5.84872076 26.8643466,6.06179001 C27.0774159,6.27485926 27.1839489,6.53053852 27.1839489,6.82883547 L27.1839489,11.4098014 C27.1839489,11.7152007 27.0791914,11.974431 26.8696733,12.1875003 C26.6601552,12.4005695 26.4027004,12.5071026 26.0973011,12.5071026 C25.7919019,12.5071026 25.5326715,12.4005695 25.3196023,12.1875003 C25.106533,11.974431 25,11.7152007 25,11.4098014 L25,6.82883547 C25,6.53053852 25.106533,6.27485926 25.3196023,6.06179001 C25.5326715,5.84872076 25.7919019,5.74218773 26.0973011,5.74218773 Z M37.3899149,5.94460251 L37.3899149,13.039773 C37.3899149,13.3664792 37.2762796,13.6434651 37.0490058,13.8707389 C36.8217319,14.0980128 36.5482971,14.211648 36.2286933,14.211648 L35.4296876,14.211648 L35.4296876,16.6299719 C35.4296876,16.9353712 35.3231546,17.1946015 35.1100853,17.4076708 C34.8970161,17.62074 34.6377857,17.7272731 34.3323864,17.7272731 C34.0269872,17.7272731 33.7677568,17.62074 33.5546876,17.4076708 C33.3416183,17.1946015 33.2350853,16.9353712 33.2350853,16.6299719 L33.2350853,14.211648 L31.7649148,14.211648 L31.7649148,16.6299719 C31.7649148,16.9353712 31.6583818,17.1946015 31.4453126,17.4076708 C31.2322433,17.62074 30.9730129,17.7272731 30.6676137,17.7272731 C30.3693167,17.7272731 30.1136375,17.62074 29.9005682,17.4076708 C29.687499,17.1946015 29.5809659,16.9353712 29.5809659,16.6299719 L29.5703125,14.211648 L28.7819603,14.211648 C28.4552541,14.211648 28.1782682,14.0980128 27.9509943,13.8707389 C27.7237205,13.6434651 27.6100852,13.3664792 27.6100852,13.039773 L27.6100852,5.94460251 L37.3899149,5.94460251 Z M34.9183239,1.62997179 C35.6782709,2.02059875 36.2855092,2.56569273 36.7400569,3.2652701 C37.1946046,3.96484747 37.4218751,4.73010971 37.4218751,5.56107978 L27.5674716,5.56107978 C27.5674716,4.73010971 27.7947421,3.96484747 28.2492898,3.2652701 C28.7038375,2.56569273 29.3146269,2.02059875 30.0816762,1.62997179 L29.3252841,0.234375191 C29.275568,0.142045183 29.2933235,0.0710231658 29.3785512,0.0213070077 C29.4708812,-0.021306842 29.5419032,-2.36742184e-07 29.5916194,0.0852274628 L30.3586648,1.49147747 C31.0333841,1.19318053 31.7471554,1.04403429 32.5000001,1.04403429 C33.2528447,1.04403429 33.966616,1.19318053 34.6413353,1.49147747 L35.4083808,0.0852274628 C35.4580969,-2.36742184e-07 35.5291189,-0.021306842 35.6214489,0.0213070077 C35.7066766,0.0710231658 35.7244322,0.142045183 35.674716,0.234375191 L34.9183239,1.62997179 Z M40.0000001,6.82883547 L40.0000001,11.4098014 C40.0000001,11.7152007 39.8934671,11.974431 39.6803978,12.1875003 C39.4673286,12.4005695 39.2080982,12.5071026 38.902699,12.5071026 C38.604402,12.5071026 38.3487228,12.4005695 38.1356535,12.1875003 C37.9225843,11.974431 37.8160512,11.7152007 37.8160512,11.4098014 L37.8160512,6.82883547 C37.8160512,6.52343621 37.9225843,6.2659814 38.1356535,6.05646331 C38.3487228,5.84694521 38.604402,5.74218773 38.902699,5.74218773 C39.2080982,5.74218773 39.4673286,5.84694521 39.6803978,6.05646331 C39.8934671,6.2659814 40.0000001,6.52343621 40.0000001,6.82883547 Z" id="android">
                </path>
              </g>
            </g>
          </g>
        </g>
      </g>
    </svg>