<svg height="23px" class="margin-r-2" viewBox="0 0 15 18" version="1.1" xmlns="http://www.w3.org/2000/svg" xmlns:xlink="http://www.w3.org/1999/xlink">
      <g id="Symbols" stroke="none" stroke-width="1" fill="none" fill-rule="evenodd">
        <g id="Download" transform="translate(-235.000000, -300.000000)" fill="#C4C4C4">
          <g id="bt_scan">
            <g transform="translate(209.000000, 276.000000)">
              <g id="Group-3" transform="translate(26.000000, 24.000000)">
                <path d="M15,13.0832735 C14.7200273,13.9806219 14.2785385,14.8779567 13.6755205,15.7753051 C12.749457,17.1823473 11.8269967,17.8858579 10.908112,17.8858579 C10.5563514,17.8858579 10.0538439,17.770999 9.4005743,17.5412778 C8.78319864,17.3115566 8.24120836,17.1966978 7.77458722,17.1966978 C7.33668123,17.1966978 6.82699501,17.315146 6.24551328,17.5520459 C5.66403155,17.7961247 5.19023873,17.9181622 4.8241206,17.9181622 C3.73294501,17.9181622 2.6525538,16.9885233 1.58291457,15.1292175 C0.527632915,13.2555542 0,11.4501164 0,9.71284996 C0,8.07608658 0.40559537,6.73367358 1.21679828,5.68557071 C2.02800118,4.65182541 3.04737362,4.13496052 4.27494616,4.13496052 C4.79181881,4.13496052 5.42713191,4.2426407 6.18090452,4.45800431 C6.92749835,4.67336791 7.42282721,4.7810481 7.66690596,4.7810481 C7.98995136,4.7810481 8.50322692,4.65901055 9.20674803,4.4149318 C9.93898428,4.17085305 10.55994,4.04881551 11.0696339,4.04881551 C11.9239095,4.04881551 12.6884388,4.28212258 13.3632448,4.74874372 C13.7365417,5.00718004 14.109833,5.366114 14.4831299,5.82555635 C13.9160058,6.30653507 13.5068211,6.73007714 13.2555635,7.09619526 C12.7889424,7.77100122 12.5556353,8.51399451 12.5556353,9.32519742 C12.5556353,10.215367 12.8032997,11.0157897 13.298636,11.7264896 C13.7939723,12.4371895 14.361088,12.8894463 15,13.0832735 Z M10.9511845,0.452261307 C10.9511845,0.890167301 10.8470936,1.37831748 10.6389088,1.91672649 C10.4235452,2.4551355 10.0897366,2.95046436 9.63747308,3.40272793 C9.24981859,3.79038241 8.86216992,4.04881486 8.47451543,4.17803302 C8.20890032,4.25699968 7.83560901,4.31801845 7.35463029,4.36109117 C7.37616665,3.29145194 7.65613514,2.36899167 8.19454415,1.5936827 C8.72577437,0.825552513 9.62310926,0.294330258 10.8865757,0 C10.8937545,0.0215363604 10.9027279,0.0610190955 10.9134961,0.11844939 C10.9242642,0.175879684 10.9332376,0.215362419 10.9404164,0.23689878 C10.9404164,0.265613927 10.942211,0.301507322 10.9458004,0.344580043 C10.9493898,0.387652764 10.9511845,0.423546159 10.9511845,0.452261307 Z" id="ios">
                </path>
              </g>
            </g>
          </g>
        </g>
      </g>
    </svg>