<?xml version="1.0" encoding="UTF-8" standalone="no"?>
<svg width="156px" height="166px" viewBox="0 0 156 166" version="1.1" xmlns="http://www.w3.org/2000/svg" xmlns:xlink="http://www.w3.org/1999/xlink">
    <!-- Generator: Sketch 46.2 (44496) - http://www.bohemiancoding.com/sketch -->
    <title>Group 5</title>
    <desc>Created with Sketch.</desc>
    <defs></defs>
    <g id="Page-1" stroke="none" stroke-width="1" fill="none" fill-rule="evenodd" stroke-linecap="round" stroke-linejoin="round">
        <g id="MSR-2" transform="translate(-1240.000000, -511.000000)" stroke="#D0D0D0" stroke-width="6">
            <g id="S" transform="translate(541.000000, 336.000000)">
                <g id="latte_dark-+-Group-5-Mask">
                    <g id="Group-5" transform="translate(773.793275, 260.619721) rotate(-24.000000) translate(-773.793275, -260.619721) translate(704.293275, 193.119721)">
                        <g id="Group-2" transform="translate(68.757852, 0.000000)">
                            <circle id="Oval" cx="35.3033518" cy="54.6428554" r="12.5775791"></circle>
                            <path d="M63.6029047,23.1989078 L5.74604105,23.1989078 L10.7770727,128.298454 C10.7770727,132.018792 13.2925885,134.809045 15.8081043,134.809045 L53.5408415,134.809045 C56.0563573,134.809045 58.5718731,132.018792 58.5718731,128.298454 L63.6029047,23.1989078 L63.6029047,23.1989078 Z" id="Shape"></path>
                            <path d="M69.2628153,23.1989078 L0.0861304704,23.1989078 L1.34388838,16.2812393 C1.97276733,15.0234814 3.23052524,11.8790866 5.11716209,11.8790866 L64.8606626,11.8790866 C66.7472995,11.8790866 68.0050574,15.0234814 68.6339363,16.9101182 L69.2628153,23.1989078 L69.2628153,23.1989078 Z" id="Shape"></path>
                            <path d="M10.7770727,11.8790866 L50.3964467,0.559265444 C53.5408415,-0.0696135093 56.6852362,1.81702335 56.6852362,4.96141811 L56.6852362,4.96141811" id="Shape"></path>
                            <path d="M50,9.99244974 L50,4.96141811" id="Shape"></path>
                        </g>
                        <g id="Group-2" transform="translate(-0.000000, 28.921954)">
                            <circle id="Oval" cx="35.3033518" cy="54.6428554" r="12.5775791"></circle>
                            <path d="M63.6029047,23.1989078 L5.74604105,23.1989078 L10.7770727,94.2622294 C10.7770727,96.7777452 13.2925885,98.6643821 15.8081043,98.6643821 L53.5408415,98.6643821 C56.0563573,98.6643821 58.5718731,96.7777452 58.5718731,94.2622294 L63.6029047,23.1989078 L63.6029047,23.1989078 Z" id="Shape"></path>
                            <path d="M69.2628153,23.1989078 L0.0861304704,23.1989078 L1.34388838,16.2812393 C1.97276733,15.0234814 3.23052524,11.8790866 5.11716209,11.8790866 L64.8606626,11.8790866 C66.7472995,11.8790866 68.0050574,15.0234814 68.6339363,16.9101182 L69.2628153,23.1989078 L69.2628153,23.1989078 Z" id="Shape"></path>
                            <path d="M10.7770727,11.8790866 L50.3964467,0.559265444 C53.5408415,-0.0696135093 56.6852362,1.81702335 56.6852362,4.96141811 L56.6852362,4.96141811" id="Shape"></path>
                            <path d="M51,9.99244974 L51,4.96141811" id="Shape"></path>
                        </g>
                    </g>
                </g>
            </g>
        </g>
    </g>
</svg>