<?xml version="1.0" encoding="UTF-8" standalone="no"?>
<svg width="133px" height="117px" viewBox="0 0 133 117" version="1.1" xmlns="http://www.w3.org/2000/svg" xmlns:xlink="http://www.w3.org/1999/xlink">
    <!-- Generator: Sketch 46.2 (44496) - http://www.bohemiancoding.com/sketch -->
    <title>bday_cake_dark</title>
    <desc>Created with Sketch.</desc>
    <defs></defs>
    <g id="Page-1" stroke="none" stroke-width="1" fill="none" fill-rule="evenodd">
        <g id="MSR-2" transform="translate(-1275.000000, -699.000000)">
            <g id="G" transform="translate(638.000000, 641.000000)">
                <g id="bday_cake_dark" transform="translate(0.000000, 3.000000)">
                    <g transform="translate(640.000000, 50.000000)">
                        <rect id="bounds" fill="#FF0000" opacity="0" x="7.2985782" y="0" width="132.701422" height="132.701422"></rect>
                        <path d="M75.0984847,12.2500935 C72.1806572,16.4182547 69.6207788,20.846926 69.6207788,22.328577 C69.6207788,24.863123 71.8010142,27.5767696 75.04425,27.5767696 C77.6095519,27.5767696 80.4677213,25.4221342 80.4677213,22.328577 C80.4677213,20.5104338 77.9566541,16.1794538 75.0984847,12.2500935 M75.04425,33.004022 C68.552355,33.004022 64.1973075,27.4845115 64.1973075,22.3286266 C64.1973075,17.7805933 70.8519068,8.74422654 72.8911319,6.08487535 C73.3955148,5.42817843 74.1710712,5.03198937 75.0008623,5.02113488 C75.9336993,5.11882533 76.6170567,5.3793332 77.1431334,6.01974838 C78.6020472,7.80531275 85.8911925,16.9882152 85.8911925,22.3286266 C85.8911925,28.7110694 80.2833233,33.004022 75.04425,33.004022 M116.784033,79.6352988 C114.685126,81.3123394 113.030949,82.6311771 109.619548,82.6311771 C106.115947,82.6311771 104.494311,81.4100311 102.438792,79.863246 C100.150062,78.1373596 97.3027081,75.9989971 91.9930709,75.9989971 C86.6780102,75.9989971 83.8360798,78.1373596 81.5473496,79.863246 C79.4918312,81.4100311 77.8647718,82.6311771 74.3665941,82.6311771 C70.8629928,82.6311771 69.241357,81.4100311 67.1858386,79.863246 C64.8971084,78.1373596 62.0497544,75.9989971 56.7401172,75.9989971 C51.4250565,75.9989971 48.5831261,78.1373596 46.2943959,79.863246 C44.2388775,81.4100311 42.6118181,82.6311771 39.1136404,82.6311771 C35.3768273,82.6311771 33.7551914,81.3449033 31.7105201,79.7167085 C29.9587195,78.3273156 27.9791305,76.7588213 24.4050234,76.0369883 C24.350788,76.0044244 24.1989292,75.809041 24.1989292,75.396565 L24.1989292,69.4265175 C24.1989292,66.9408068 26.3737652,64.8404355 28.9445191,64.8404355 L119.788669,64.8404355 C122.359423,64.8404355 124.534259,66.9408068 124.534259,69.4265175 L124.534259,74.7344325 C124.534259,74.9786617 124.534259,75.6353669 123.210917,76.0749795 C120.379834,76.7696759 118.470751,78.2893244 116.784033,79.6352988 M119.78862,59.4132025 L77.0783568,59.4132025 L77.0783568,37.5846655 C77.0783568,36.0867351 75.8634871,34.8710234 74.3665941,34.8710234 C72.8642775,34.8710234 71.6548313,36.0867351 71.6548313,37.5846655 L71.6548313,59.4132025 L28.9445682,59.4132025 C23.3366429,59.4132025 18.7754579,63.9069938 18.7754579,69.4265418 L18.7754579,75.3965544 C18.7754579,78.5823703 21.0099504,81.2037485 23.8301837,81.4099853 C25.6850294,81.8604499 26.8565109,82.7993701 28.3371333,83.9662362 C30.6312846,85.7898036 33.484059,88.0584084 39.1136785,88.0584084 C44.4233099,88.0584084 47.2706608,85.9200585 49.5593885,84.1941821 C51.6149047,82.6474061 53.2365388,81.4262672 56.7401363,81.4262672 C60.2383102,81.4262672 61.8653679,82.6474061 63.920884,84.1941821 C66.2096118,85.9200585 69.0515391,88.0584084 74.3665941,88.0584084 C79.6762255,88.0584084 82.5235764,85.9200585 84.8123042,84.1941821 C86.8678203,82.6474061 88.4894544,81.4262672 91.9930519,81.4262672 C95.4912258,81.4262672 97.1182835,82.6474061 99.1737996,84.1941821 C101.462527,85.9200585 104.304455,88.0584084 109.61951,88.0584084 C114.929141,88.0584084 117.830727,85.7409581 120.168267,83.8793996 C120.72689,83.428935 121.269242,83.0381706 121.822442,82.6582607 L121.822442,111.878759 C121.822442,114.369882 120.336396,115.797258 117.754798,115.797258 L30.3004496,115.797258 C28.3967921,115.797258 26.2328055,113.707753 26.2328055,111.878759 L26.2328055,86.006895 C26.2328055,84.5089646 25.0179357,83.2932529 23.5210427,83.2932529 C22.0187262,83.2932529 20.80928,84.5089646 20.80928,86.006895 L20.80928,111.878759 C20.80928,116.681905 25.4192766,121.224542 30.3004496,121.224542 L117.754798,121.224542 C123.341029,121.224542 127.245968,117.382025 127.245968,111.878759 L127.245968,79.933764 C128.948955,78.6529249 129.95773,76.8510666 129.95773,74.7344258 L129.95773,69.4265418 C129.95773,63.9069938 125.391122,59.4132025 119.78862,59.4132025" id="bday_cake" fill="#009859"></path>
                        <path d="M30.068218,42.6247583 C36.1485972,40.1983128 42.0206351,37.2490237 47.5980758,33.8206825" id="Stroke-86" stroke="#009859" stroke-width="6" stroke-linecap="round" stroke-linejoin="round" transform="translate(38.833147, 38.222720) scale(-1, 1) translate(-38.833147, -38.222720) "></path>
                        <path d="M48.4851185,15.2606635 C45.643981,18.0779147 43.1677725,21.2627488 41.1374408,24.7103318" id="Stroke-88" stroke="#009859" stroke-width="6" stroke-linecap="round" stroke-linejoin="round" transform="translate(44.811280, 19.985498) scale(-1, 1) translate(-44.811280, -19.985498) "></path>
                        <path d="M15.3261517,47.8555166 C11.1626445,47.8555166 7.78738389,44.4802559 7.78738389,40.3167488 C7.78738389,44.4802559 4.41278673,47.8555166 0.249279621,47.8555166 C4.41278673,47.8555166 7.78738389,51.2307773 7.78738389,55.3942844 C7.78738389,51.2307773 11.1626445,47.8555166 15.3261517,47.8555166 L15.3261517,47.8555166 Z" id="Stroke-136" stroke="#009859" stroke-width="5.345" stroke-linecap="round" stroke-linejoin="round" transform="translate(7.787716, 47.855517) scale(-1, 1) translate(-7.787716, -47.855517) "></path>
                    </g>
                </g>
            </g>
        </g>
    </g>
</svg>