<?xml version="1.0" encoding="UTF-8" standalone="no"?>
<svg width="134px" height="117px" viewBox="0 0 134 117" version="1.1" xmlns="http://www.w3.org/2000/svg" xmlns:xlink="http://www.w3.org/1999/xlink">
    <!-- Generator: Sketch 46.2 (44496) - http://www.bohemiancoding.com/sketch -->
    <title>latte_dark</title>
    <desc>Created with Sketch.</desc>
    <defs></defs>
    <g id="Page-1" stroke="none" stroke-width="1" fill="none" fill-rule="evenodd" opacity="0.119999997">
        <g id="MSR-2" transform="translate(-1285.000000, -353.000000)">
            <g id="S" transform="translate(541.000000, 336.000000)">
                <g id="latte_dark-+-Group-5-Mask">
                    <g id="latte_dark" transform="translate(738.000000, 6.000000)">
                        <rect id="bounds" fill="#FF0000" opacity="0" x="0" y="0" width="140" height="140"></rect>
                        <path d="M46.1333013,39.5511924 L42.0835234,37.2100396 C40.1270227,36.3941833 39.4015119,35.507383 39.3717778,34.9989508 C39.3420438,34.4550466 39.9783525,33.4440943 41.8397041,32.3208139 L43.7664707,31.0260855 C43.7070026,31.2684776 43.6772686,31.5345176 43.6415877,31.8715018 L43.695109,32.1257178 C44.0281304,33.2726462 44.9320456,34.6974387 47.2037272,35.8029831 L50.0165685,37.1568316 C50.6766645,37.5824957 51.1226753,38.404264 51.0810476,39.1137042 C51.0572603,39.4270403 50.9502178,39.8704405 50.2425473,40.2133366 L48.2741531,41.1710809 C47.774621,40.3966087 47.0074824,39.8054085 46.1333013,39.5511924 L46.1333013,39.5511924 Z M66.5077501,36.5419743 C69.0887375,35.2886414 72.841279,35.4423521 74.559955,36.5419743 L81.8866288,40.1068786 C82.0709851,40.2665012 82.2672353,40.4142998 82.4634855,40.5502746 L79.8765511,41.6912805 C77.2955637,42.9446133 73.5489691,42.7909027 71.8302932,41.6912805 L64.093278,37.9312819 L65.4194536,37.1213451 L66.5077501,36.5419743 Z M62.5532971,30.5415992 L58.8007356,29.0813021 C56.8441703,28.2654276 56.1186354,27.3786075 56.0889004,26.870164 C56.0532183,26.2789506 56.8203822,25.0137539 59.0267219,23.7899422 C59.1872911,23.7012601 60.2577524,23.0213647 60.2577524,23.0213647 C60.2755934,23.0863982 60.2993814,23.1514317 60.3172224,23.2164652 C60.6799899,24.2865614 61.595829,25.8059798 63.9211087,26.9351974 L66.7399901,28.2890761 C67.3941609,28.7147498 67.8401864,29.5365364 67.7985574,30.2459925 C67.7807164,30.5534235 67.6736702,31.0027456 66.7875662,31.4402436 L64.7417957,32.6817917 C64.2660352,31.7772352 63.5107653,31.0027456 62.5532971,30.5415992 L62.5532971,30.5415992 Z M111.252365,50.204707 C111.252365,76.6908503 89.0643482,98.2404021 61.7976482,98.2404021 C34.5250012,98.2404021 12.3369843,76.6908503 12.3310373,50.3702454 L12.735429,43.2757427 C19.6576621,50.5594321 34.4952666,60.5508567 64.0753245,60.5508567 C90.467825,60.5508567 104.425283,51.0974319 111.252365,43.8728634 L111.252365,50.204707 Z M114.29112,95.2847121 C114.29112,109.704287 90.9493958,121.889095 63.3139834,121.889095 C35.6845179,121.889095 12.3368465,109.704287 12.3368465,95.2847121 C12.3368465,90.8683846 14.4361149,86.7240131 18.1232154,83.2890917 C28.2746354,95.9586898 44.0518571,104.15284 61.7975147,104.15284 C80.2746454,104.15284 96.6287199,95.2610638 106.696883,81.6810046 C111.57337,85.3701456 114.29112,90.1766707 114.29112,95.2847121 L114.29112,95.2847121 Z M23.9932089,27.9165663 C28.6318249,24.304278 35.3280834,21.4664738 42.3989994,20.0889563 C43.5289186,19.8583847 44.6291032,20.5973962 44.8431932,21.7206938 C45.0632301,22.8439913 44.3258091,23.9318162 43.2018367,24.1505636 C36.7494029,25.4039271 30.7013613,27.9579509 26.6039171,31.1386565 C24.0586252,33.2374492 23.0060162,35.3953628 23.5174534,37.523716 C24.3500255,40.9822899 29.0540579,44.4408638 36.1011861,47.0953931 L44.1414538,43.1815881 C44.0284619,43.1224672 40.222418,40.9054327 40.222418,40.9054327 C36.3033821,39.2855194 35.3161895,36.9147705 35.2210384,35.2357363 C35.1139934,33.4739329 35.9049369,30.8548761 40.2640466,28.4427425 C43.6656983,26.7223237 45.8422797,26.7223237 45.8422797,26.7223237 C47.1684481,26.7164116 47.810718,26.8228293 48.345943,27.6505221 C48.8811679,28.472303 48.762229,29.56604 48.0545427,30.2518427 C47.7988242,30.5001506 47.6560975,30.7602826 47.6858322,30.9317333 C47.7215139,31.1327444 48.0367019,31.6057118 49.0357884,32.0845912 L52.0746766,33.5626143 C53.72198,34.6208788 54.7686421,36.1816711 55.1076179,37.8488811 L56.2910596,37.2754081 L61.1199779,34.7154722 C61.0486145,34.5676699 60.9653573,34.3843951 60.8702062,34.3193621 L57.2366237,32.9181962 C53.0202407,31.1563928 52.033048,28.7856438 51.9378969,27.1066097 C51.8367989,25.3802788 52.5980077,22.8321671 56.7311335,20.455506 L61.7979294,17.9783394 C62.6126607,17.6709107 63.5165961,17.8778339 64.0993966,18.5163398 C64.6821971,19.1548458 64.8070829,20.0830442 64.4086377,20.8457041 C64.2956457,21.0644515 64.1291313,21.4901222 64.271858,21.9098807 C64.4205316,22.3651118 64.9498095,22.826255 65.7526469,23.2164531 L68.7915351,24.6944761 C70.9324348,26.0660815 72.0861419,28.2949402 71.9493622,30.5001506 C71.9255744,30.8903486 71.8304233,31.2509862 71.7352722,31.6116239 C73.5907186,31.7298657 75.3510139,32.1378001 76.611766,32.9536688 L83.9859761,36.5186603 C84.1881721,36.6191659 86.7810396,37.7720239 88.3986082,37.783848 C89.1300823,37.7956722 90.0102299,37.8193206 90.634659,38.2568154 C91.2769289,38.7120465 91.3363984,39.6520692 91.1163615,40.349696 C90.9676879,40.8285755 90.6703407,41.2601582 90.2718955,41.567587 C89.7723522,41.9636972 89.0349312,42.1706204 88.4521307,42.4307524 C87.5065667,42.850511 86.5610026,43.2643574 85.6154386,43.684116 C84.2892702,44.2694131 82.9631018,44.8547102 81.6369333,45.4459194 C78.0092977,47.213635 72.6570485,47.1545141 69.7787278,45.2862929 L60.8821001,40.9763778 C59.942483,40.5211467 59.1099109,40.5211467 58.1583999,40.9704657 C58.1405591,40.9822899 52.0746766,43.9324238 52.0746766,43.9324238 L50.9923329,44.4586 L41.8340397,48.9104054 C42.8033915,49.1705375 43.7608494,49.4365816 44.7777768,49.6612411 C64.3610621,53.1966722 87.4292564,49.7617467 96.117741,42.0109939 C97.8007261,40.5625313 99.6978011,38.3218484 99.3647723,35.791473 C99.0198495,33.160592 96.4210352,30.5474473 92.0381377,28.413182 C91.0033695,27.9106542 90.5751896,26.6750269 91.0806798,25.6463229 C91.58617,24.623531 92.8350282,24.1978604 93.8638494,24.6944761 C99.6264378,27.4968078 102.950779,31.1504807 103.497898,35.2534726 C103.813086,37.6596941 103.265967,41.3192791 98.8771229,45.1148423 C91.7526844,51.4644292 76.7723335,55.1949593 60.9296757,55.1949593 C55.2741323,55.1949593 49.505597,54.7160799 43.9452047,53.7169363 C41.1025656,53.0784304 38.533486,52.3216826 36.1309208,51.4939897 C36.0773983,51.4999018 35.2567201,51.3166269 34.6739196,51.0091981 C26.0567983,47.8107563 20.6569735,43.4417202 19.4735317,38.487387 C18.8431557,35.8801544 19.122662,31.9308768 23.9932089,27.9165663 L23.9932089,27.9165663 Z M119.322481,72.3810368 C117.687072,72.5051904 116.456054,73.9240885 116.58094,75.5499091 C116.699879,77.1047849 118.002259,78.2872 119.542518,78.2872 C119.619828,78.2872 119.697138,78.2812879 119.768501,78.2753758 C130.924966,77.4417732 140,67.5035748 140,56.1169179 C140,44.097669 129.586904,33.9466359 117.264839,33.9466359 L117.187528,33.9466359 L116.878287,33.3376921 C110.229606,20.4138957 87.0662643,11.0373444 61.7977053,11.0373444 C36.9632732,11.0373444 14.1210668,20.4138957 7.47833198,33.3376921 C7.47833198,33.3376921 7.17503791,36.4119712 7.15719708,36.7312233 L6.39004149,50.2048427 C6.39004149,60.5214139 9.43487608,70.1403603 14.6146631,78.3463207 C9.36351277,82.9813877 6.39004149,89.0235285 6.39004149,95.2844162 C6.39004149,113.209828 31.9262128,127.80083 63.3141757,127.80083 C94.7021385,127.80083 120.23831,113.209828 120.23831,95.2844162 C120.23831,88.2608708 116.50363,81.4974568 109.997675,76.7086759 C114.55898,68.8751762 117.199422,59.8415253 117.199422,50.2048427 L117.199422,39.8587111 L117.264839,39.8587111 C126.20904,39.8587111 134.053057,47.4557277 134.053057,56.1169179 C134.053057,64.4765923 127.446004,71.7720931 119.322481,72.3810368 L119.322481,72.3810368 Z" id="latte" fill-opacity="0.58" fill="#000000"></path>
                    </g>
                </g>
            </g>
        </g>
    </g>
</svg>