<?xml version="1.0" encoding="UTF-8" standalone="no"?>
<svg width="135px" height="129px" viewBox="0 0 135 129" version="1.1" xmlns="http://www.w3.org/2000/svg" xmlns:xlink="http://www.w3.org/1999/xlink">
    <!-- Generator: Sketch 46.2 (44496) - http://www.bohemiancoding.com/sketch -->
    <title>Fill 1</title>
    <desc>Created with Sketch.</desc>
    <defs></defs>
    <g id="Page-1" stroke="none" stroke-width="1" fill="none" fill-rule="evenodd" opacity="0.239999995">
        <g id="G" transform="translate(-213.000000, -360.000000)" fill="#00653E">
            <g id="group_order_XL_dark">
                <g transform="translate(278.127135, 420.501303) scale(-1, 1) rotate(40.000000) translate(-278.127135, -420.501303) translate(212.627135, 376.501303)" id="Fill-1">
                    <path d="M47.0223846,77.0204925 C45.851303,76.9704346 44.7929923,77.8538096 44.709137,79.0699224 L44.5154026,81.8996668 C44.466246,82.72415 43.7954042,83.3690137 42.9857676,83.3690137 L14.7236654,83.3690137 C13.9140288,83.3690137 13.2402954,82.72415 13.1911389,81.8761101 L9.62006295,29.8924398 L38.677344,29.8924398 L38.6831271,29.8924398 C39.8802327,29.8924398 40.8517967,28.9030599 40.8517967,27.6840025 C40.8517967,26.4649451 39.8802327,25.4755651 38.6831271,25.4755651 L38.677344,25.4755651 L7.29524915,25.4755651 L5.45621733,25.4755651 L5.89573437,22.9667803 C6.0576617,22.2571358 6.51452809,21.3590379 6.83259963,21.0027434 L38.0036106,21.0027434 C39.2007163,21.0027434 40.1722802,20.0133635 40.1722802,18.7943061 C40.1722802,17.5752486 39.2007163,16.5858687 38.0036106,16.5858687 L6.49428718,16.5858687 C3.5391134,16.5858687 2.01237001,20.475663 1.65092507,22.0804608 L0.731409165,27.2923729 C0.618638346,27.9372366 0.792131914,28.5997678 1.20273336,29.100347 C1.61622636,29.6009261 2.22634541,29.8924398 2.86538005,29.8924398 L5.27404908,29.8924398 L8.86247438,82.1646792 C9.05042574,85.3153832 11.6268052,87.7858884 14.7236654,87.7858884 L42.9857676,87.7858884 C46.0826278,87.7858884 48.6561157,85.3153832 48.8440671,82.1852913 L49.03491,79.376159 C49.1216568,78.1600462 48.2165987,77.1029409 47.0223846,77.0204925 L47.0223846,77.0204925 Z M129.724244,21.9715112 C129.380148,20.4727184 127.847622,16.5858687 124.901123,16.5858687 L93.3917994,16.5858687 C92.1946937,16.5858687 91.2231298,17.5752486 91.2231298,18.7943061 C91.2231298,20.0133635 92.1946937,21.0027434 93.3917994,21.0027434 L124.56281,21.0027434 C124.87799,21.3590379 125.331965,22.2453575 125.476543,22.8607753 L125.936301,25.4755651 L124.100161,25.4755651 L92.718066,25.4755651 L92.7122829,25.4755651 C91.5151773,25.4755651 90.5436133,26.4649451 90.5436133,27.6840025 C90.5436133,28.9030599 91.5151773,29.8924398 92.7122829,29.8924398 L92.718066,29.8924398 L121.775347,29.8924398 L118.20138,81.8996668 C118.155115,82.72415 117.481381,83.3690137 116.671745,83.3690137 L88.4096424,83.3690137 C87.6000058,83.3690137 86.929164,82.72415 86.8771159,81.8790547 L86.686273,79.0699224 C86.6024177,77.8538096 85.5585648,76.9733792 84.3730254,77.0204925 C83.1788113,77.1029409 82.2737532,78.1600462 82.3605,79.376159 L82.5484514,82.1617347 C82.7335112,85.3153832 85.3069991,87.7858884 88.4096424,87.7858884 L116.671745,87.7858884 C119.768605,87.7858884 122.344984,85.3153832 122.530044,82.1882359 L126.121361,29.8924398 L128.527138,29.8924398 C129.169065,29.8924398 129.779184,29.6009261 130.192677,29.100347 C130.603278,28.5997678 130.776772,27.9372366 130.664001,27.2923729 L129.724244,21.9715112 Z M80.4141929,67.5214928 L52.1491922,67.5214928 C51.3395554,67.5214928 50.671605,66.8795741 50.6195569,66.0344792 L47.0513717,14.0449487 L85.514905,14.0449487 L81.9409366,66.0580359 C81.8946717,66.8795741 81.2238297,67.5214928 80.4141929,67.5214928 L80.4141929,67.5214928 Z M43.324248,7.12498067 C43.4861757,6.41239553 43.9459348,5.51430268 44.2611155,5.15506554 L88.3025638,5.15506554 C88.6206361,5.51135812 89.0746121,6.40061726 89.2191904,7.01308714 L89.6789494,9.62786237 L87.8399132,9.62786237 L44.7237662,9.62786237 L42.8818383,9.62786237 L43.324248,7.12498067 Z M86.2698293,66.3435811 L89.8611624,14.0448404 L92.2669508,14.0448404 C92.9088799,14.0448404 93.5190017,13.7562713 93.9324966,13.2556922 C94.3430999,12.7521685 94.5165942,12.0925818 94.4038229,11.4477181 L93.4669534,6.12391187 C93.1228563,4.62806365 91.5903228,0.738269354 88.6409188,0.738269354 L43.9256409,0.738269354 C40.9733454,0.738269354 39.4408119,4.62806365 39.0764738,6.23580603 L38.1598453,11.4477181 C38.0470739,12.0925818 38.2176767,12.7521685 38.6311716,13.2556922 C39.0417749,13.7562713 39.6518967,14.0448404 40.2938258,14.0448404 L42.7025057,14.0448404 L46.2909473,66.3170799 C46.4760079,69.4707284 49.0495075,71.938289 52.1492733,71.938289 L80.4143949,71.938289 C83.5141607,71.938289 86.0905518,69.4707284 86.2698293,66.3435811 L86.2698293,66.3435811 Z M28.4761037,41.0996389 C22.8028474,41.0996389 18.187905,45.7962292 18.187905,51.5734771 C18.187905,57.3507249 22.8028474,62.0502598 28.4761037,62.0502598 C34.1493599,62.0502598 38.7671939,57.3507249 38.7671939,51.5734771 C38.7671939,45.7962292 34.1493599,41.0996389 28.4761037,41.0996389 L28.4761037,41.0996389 Z M28.4761037,66.4673462 C20.4115065,66.4673462 13.8505272,59.7860769 13.8505272,51.5736221 C13.8505272,43.3611673 20.4115065,36.6828427 28.4761037,36.6828427 C36.5407009,36.6828427 43.1045717,43.3611673 43.1045717,51.5736221 C43.1045717,59.7860769 36.5407009,66.4673462 28.4761037,66.4673462 L28.4761037,66.4673462 Z M102.919306,41.0996389 C97.2460501,41.0996389 92.6282161,45.7962292 92.6282161,51.5734771 C92.6282161,57.3507249 97.2460501,62.0502598 102.919306,62.0502598 C108.592563,62.0502598 113.207505,57.3507249 113.207505,51.5734771 C113.207505,45.7962292 108.592563,41.0996389 102.919306,41.0996389 L102.919306,41.0996389 Z M102.919306,66.4673462 C94.8547091,66.4673462 88.2908383,59.7860769 88.2908383,51.5736221 C88.2908383,43.3611673 94.8547091,36.6828427 102.919306,36.6828427 C110.983904,36.6828427 117.544883,43.3611673 117.544883,51.5736221 C117.544883,59.7860769 110.983904,66.4673462 102.919306,66.4673462 L102.919306,66.4673462 Z M66.6591272,25.2517494 C60.9858702,25.2517494 56.3709272,29.9512843 56.3709272,35.7285321 C56.3709272,41.5028354 60.9858702,46.2023703 66.6591272,46.2023703 C72.3323842,46.2023703 76.9473272,41.5028354 76.9473272,35.7285321 C76.9473272,29.9512843 72.3323842,25.2517494 66.6591272,25.2517494 L66.6591272,25.2517494 Z M66.6591272,50.6194567 C58.5945293,50.6194567 52.0335494,43.941132 52.0335494,35.7286772 C52.0335494,27.5162224 58.5945293,20.8349532 66.6591272,20.8349532 C74.7237252,20.8349532 81.284705,27.5162224 81.284705,35.7286772 C81.284705,43.941132 74.7237252,50.6194567 66.6591272,50.6194567 L66.6591272,50.6194567 Z"></path>
                </g>
            </g>
        </g>
    </g>
</svg>