<?xml version="1.0" encoding="UTF-8" standalone="no"?>
<svg width="109px" height="174px" viewBox="0 0 109 174" version="1.1" xmlns="http://www.w3.org/2000/svg" xmlns:xlink="http://www.w3.org/1999/xlink">
    <!-- Generator: Sketch 46.2 (44496) - http://www.bohemiancoding.com/sketch -->
    <title>iced_coffee_dark</title>
    <desc>Created with Sketch.</desc>
    <defs></defs>
    <g id="Page-1" stroke="none" stroke-width="1" fill="none" fill-rule="evenodd">
        <g id="MSR-2" transform="translate(-597.000000, -432.000000)" fill="#D0D0D0">
            <g id="S" transform="translate(541.000000, 336.000000)">
                <g id="latte_dark-+-Group-5-Mask">
                    <g id="iced_coffee_dark" transform="translate(109.468754, 180.468754) rotate(20.000000) translate(-109.468754, -180.468754) translate(24.468754, 95.468754)">
                        <path d="M81.6388147,58.4383096 L81.0749708,52.957125 L124.619422,52.957125 L126.475111,58.4383096 L81.6388147,58.4383096 Z M113.014682,160.865431 C113.014682,162.509057 111.644323,162.946417 110.923457,162.946417 L91.902587,162.946417 L88.6622586,126.314023 C88.6622586,126.285806 88.647984,126.271697 88.6408468,126.250535 L87.2205266,112.473707 L93.3300444,120.945786 C93.8153799,121.622988 94.5862069,121.982752 95.3641712,121.982752 C95.8637813,121.982752 96.377666,121.834614 96.8130405,121.524229 C97.9335946,120.734161 98.1976742,119.196348 97.3982981,118.081786 L90.5250906,108.600959 C90.2253245,108.001353 90.2253245,107.782673 90.4537177,107.50756 L100.02482,100.693215 C100.610077,100.403993 100.831333,100.389885 101.109687,100.622673 L107.982895,110.1035 C108.282661,110.703106 108.282661,110.921786 107.911522,111.316821 L103.664836,114.815697 C102.608518,115.690417 102.465772,117.249392 103.350796,118.293412 C104.235819,119.344486 105.806022,119.485569 106.862341,118.603796 L111.273184,114.949727 C113.314448,112.939284 113.728411,110.435047 112.250993,107.571047 L104.913861,97.4482886 C103.878955,96.4183773 102.70844,95.8187713 101.430865,95.656525 L103.721934,94.2950669 C104.906724,93.5967024 105.292138,92.0800521 104.578409,90.9161112 C103.878955,89.7451162 102.337301,89.3571359 101.152511,90.0696088 L97.7908489,92.0729979 C97.569593,92.1435398 97.0128846,91.9671851 96.8915507,91.7837763 L90.5322278,79.1638354 C90.4394431,78.9522098 90.6321499,78.394929 90.8248566,78.2750078 L103.55064,71.9615103 C103.78617,71.8980226 104.328604,72.0673231 104.4428,72.2577861 L105.863121,75.0582984 C105.863121,75.0724068 105.877395,75.079461 105.877395,75.0865152 C105.884532,75.1006236 105.884532,75.1147319 105.89167,75.1288403 L110.802123,84.1723083 C110.887771,84.3909881 110.702201,84.9482689 110.509495,85.0681901 C109.274744,85.6748502 108.775134,87.1562295 109.396078,88.383658 C109.831452,89.2442689 110.716476,89.7451162 111.630049,89.7451162 C112.001188,89.7451162 112.386601,89.6604659 112.743465,89.4841112 C115.091633,88.3272245 116.190775,85.4138452 115.51987,82.9307713 C115.512733,82.6838748 115.427085,82.4369782 115.334301,82.1971359 C115.305752,82.1195398 115.312889,82.0419438 115.277202,81.9643477 C115.270065,81.9572935 115.262928,81.9572935 115.262928,81.9572935 C115.255791,81.936131 115.255791,81.9220226 115.248653,81.90086 L110.295376,72.7939044 L110.295376,72.7868502 L108.910742,70.0498255 C108.282661,68.8012344 107.083597,67.806594 105.606178,67.3269093 C104.150172,66.8401704 102.579969,66.9248206 101.316669,67.5455891 L88.5908857,73.8590866 C85.9429522,75.1641112 84.7367507,78.7476383 86.0571488,81.3647418 L92.4236089,93.9846827 C93.0516902,95.2332738 94.2507544,96.2279142 95.7138983,96.7146531 C96.0921745,96.8345743 96.477588,96.8486827 96.8630015,96.898062 L87.2348012,103.754732 C87.1420165,103.846436 87.10633,103.945195 87.0206826,104.036899 L89.9969313,92.8136876 C90.0540296,92.602062 90.0825788,92.3904364 90.0825788,92.1858649 C90.0825788,88.8280718 88.5551993,86.6271654 85.1721252,85.5408206 L84.42271,85.4208994 L82.3743086,65.5704167 L119.138475,65.5704167 L113.014682,160.865431 Z M66.3719347,162.946417 C65.5154658,162.946417 64.2807231,161.718988 64.2735859,160.667914 L58.8350082,65.5704167 L77.3561487,65.5704167 L79.3117528,84.5179635 L73.930273,83.4527812 L73.9231358,83.4527812 L70.6185932,82.7050374 C67.2284037,82.7050374 65.0015844,84.2146334 63.9309983,87.4736679 L61.0404157,101.292821 C61.0404157,104.64356 62.5677852,106.844466 65.8794651,107.923757 L72.952471,109.320486 C73.1166275,109.355757 73.2807841,109.369865 73.4449406,109.369865 C74.6083109,109.369865 75.6503481,108.558633 75.8930143,107.387638 C76.1642294,106.054397 75.2863488,104.749372 73.930273,104.481313 L67.1641685,103.155126 C66.4076209,102.908229 66.0436216,102.724821 65.9865237,101.800722 L68.7414988,88.75753 C68.9984394,88.0027319 69.1768705,87.6429684 70.0119277,87.5653723 L72.8382751,88.2707911 C72.8525496,88.2707911 72.8739613,88.2637369 72.8882358,88.2707911 C72.9096475,88.2778452 72.9310593,88.2919536 72.952471,88.2919536 L79.8399086,89.6604659 L81.4529251,105.25022 C81.2245334,105.6382 80.8462596,105.835717 79.8042224,105.835717 C78.4267349,105.835717 77.306188,106.93617 77.306188,108.304683 C77.306188,109.666141 78.4267349,110.773648 79.8042224,110.773648 C80.6392796,110.773648 81.2887685,110.533806 81.9810809,110.350397 L83.672607,126.765491 L83.672607,126.737274 C83.5512739,125.38287 84.5647622,124.183658 85.9422497,124.063737 L85.9565242,124.063737 C84.5790366,124.183658 83.5655484,125.38287 83.6868815,126.737274 L86.8843655,162.946417 L66.3719347,162.946417 Z M51.527039,58.4383096 L53.382716,52.957125 L76.0505244,52.957125 L76.6143647,58.4383096 L51.527039,58.4383096 Z M134.811699,60.8438409 L130.572151,48.3085885 C130.086815,46.8695387 128.723594,45.9031181 127.189077,45.9031181 L80.3470701,45.9031181 L79.4620466,37.3323068 C79.4549093,37.3111443 79.4691839,37.2899818 79.4620466,37.2688193 L75.9290901,2.22372441 C75.7934817,0.869324607 74.5444566,-0.13942108 73.1955096,0.015770564 C71.8251507,0.149799711 70.8187934,1.35606204 70.9544018,2.717516 L74.4944956,37.7555567 C74.6229668,39.0323607 75.7078342,39.9846731 76.9711338,39.9846731 L76.9639966,39.9846731 C75.6935597,39.9846731 74.6158295,39.0323607 74.4802211,37.7626109 L74.4802211,37.7626109 L75.3224208,45.9031181 L50.8129811,45.9031181 C49.2784646,45.9031181 47.915243,46.8695387 47.4299076,48.3085885 L43.1832225,60.8438409 C42.8192209,61.9231282 43.0047903,63.1082281 43.6756952,64.0252696 C44.3394628,64.9493653 45.4243303,65.492536 46.566296,65.492536 L51.6765927,65.492536 L57.1437537,160.864855 C57.1437537,165.64758 61.5474591,170 66.3722643,170 L110.923203,170 C115.455379,170 120.151713,166.585784 120.144576,161.090589 L126.296917,65.492536 L131.428625,65.492536 C132.577728,65.492536 133.655458,64.9493653 134.326363,64.0252696 C134.997268,63.1082281 135.182837,61.9231282 134.811699,60.8438409 L134.811699,60.8438409 Z" id="iced_coffee"></path>
                    </g>
                </g>
            </g>
        </g>
    </g>
</svg>