<?xml version="1.0" standalone="no"?>
<!DOCTYPE svg PUBLIC "-//W3C//DTD SVG 20010904//EN"
 "http://www.w3.org/TR/2001/REC-SVG-20010904/DTD/svg10.dtd">
<svg version="1.0" xmlns="http://www.w3.org/2000/svg"
 width="700.000000pt" height="700.000000pt" viewBox="0 0 700.000000 700.000000"
 preserveAspectRatio="xMidYMid meet">
<metadata>
Created by potrace 1.11, written by Peter Selinger 2001-2013
</metadata>
<g transform="translate(0.000000,700.000000) scale(0.100000,-0.100000)"
fill="#000000" stroke="none">
<path d="M3285 6879 c-724 -44 -1416 -324 -1985 -805 -192 -162 -443 -441
-593 -659 -343 -501 -549 -1096 -585 -1693 l-7 -122 34 -6 c61 -12 188 4 279
35 48 16 169 69 268 119 233 114 351 144 507 128 l65 -7 -67 -140 -66 -139
-66 0 c-108 0 -208 -32 -404 -130 -232 -115 -310 -141 -444 -148 l-103 -5 6
-76 c4 -42 10 -96 13 -120 l6 -43 106 4 c118 6 180 26 323 105 212 117 288
146 416 156 62 5 64 5 58 -16 -3 -12 -16 -70 -28 -128 l-22 -107 -60 -7 c-80
-9 -148 -36 -285 -113 -207 -116 -282 -142 -407 -142 l-64 0 6 -27 c4 -16 19
-75 34 -133 l26 -105 70 1 c79 0 146 26 271 107 132 85 223 122 321 130 l52 4
0 -113 0 -114 -38 0 c-61 0 -156 -38 -250 -99 -163 -107 -209 -128 -303 -140
l-48 -6 53 -128 c30 -71 56 -130 58 -133 15 -14 115 34 198 97 124 94 202 130
289 137 l67 4 14 -88 c7 -49 12 -91 12 -94 -1 -3 -26 -8 -55 -11 -76 -9 -149
-46 -246 -128 -46 -39 -105 -78 -130 -88 -25 -9 -48 -18 -50 -19 -2 -2 30 -57
70 -123 83 -138 70 -135 176 -40 97 87 175 136 241 150 31 7 58 13 60 15 2 1
-8 42 -23 92 -14 50 -25 93 -25 95 0 3 30 8 66 12 147 16 322 86 432 175 l57
46 6 74 c11 134 44 197 243 460 77 102 153 214 169 248 28 61 30 69 24 155 -4
60 -20 143 -45 237 -58 213 -60 226 -71 344 -23 236 37 465 174 672 56 83 174
212 215 234 21 11 19 6 -13 -36 -61 -80 -134 -205 -172 -293 -54 -126 -77
-230 -83 -364 -7 -169 2 -214 102 -559 33 -115 50 -266 36 -338 -16 -87 -70
-182 -206 -365 -149 -200 -177 -247 -206 -339 -38 -124 -16 -237 84 -449 l61
-127 -24 -26 c-97 -105 -323 -230 -475 -264 -69 -16 -156 -15 -182 1 -11 7
-35 44 -52 81 -34 78 -39 79 -125 47 -43 -16 -80 -43 -153 -112 -53 -50 -99
-94 -100 -99 -4 -9 34 -60 110 -150 l49 -57 79 83 c51 53 102 95 141 116 33
17 62 30 64 28 8 -7 75 -131 73 -133 -2 -1 -19 -8 -38 -15 -36 -15 -154 -125
-185 -173 l-18 -28 94 -95 c51 -52 96 -94 99 -94 3 0 14 14 24 32 25 41 142
158 159 158 7 0 30 -23 51 -51 l38 -51 -54 -56 c-51 -54 -104 -129 -97 -136 2
-2 58 -43 123 -91 l120 -86 13 53 c21 82 64 161 164 303 194 273 224 340 224
496 0 85 2 94 14 77 29 -42 61 -153 61 -214 0 -115 -39 -209 -203 -486 -73
-125 -136 -281 -124 -311 5 -14 166 -107 185 -107 5 0 12 24 15 53 11 87 52
191 171 432 124 250 156 336 156 424 0 108 -34 188 -182 433 -150 248 -192
357 -190 493 1 140 50 237 251 500 110 143 170 257 178 337 9 91 -14 210 -82
413 -77 229 -96 324 -96 475 0 258 94 497 270 684 58 61 147 136 161 136 5 0
-19 -37 -53 -83 -165 -220 -229 -405 -229 -662 0 -159 15 -230 105 -480 75
-209 98 -309 98 -432 1 -153 -43 -249 -209 -461 -159 -202 -202 -286 -209
-408 -9 -138 30 -236 199 -502 147 -231 191 -339 190 -471 -1 -111 -28 -185
-162 -446 -125 -243 -150 -301 -175 -405 -29 -125 -31 -120 99 -172 l113 -45
6 87 c8 125 53 250 174 489 149 290 173 357 174 474 1 125 -38 216 -195 462
-280 436 -283 586 -21 923 175 226 214 303 222 443 9 144 -17 239 -157 578
-70 171 -92 268 -92 411 0 188 42 340 136 500 69 117 231 290 272 290 22 0 17
-11 -37 -85 -67 -91 -142 -248 -169 -355 -14 -55 -23 -132 -27 -221 -9 -199
10 -274 149 -597 102 -238 129 -329 135 -460 10 -189 -30 -291 -204 -520 -57
-75 -120 -171 -140 -212 -33 -66 -38 -86 -41 -166 -7 -152 20 -219 205 -507
181 -281 220 -381 210 -537 -7 -112 -28 -172 -154 -434 -58 -121 -121 -267
-141 -325 -31 -93 -35 -119 -36 -208 -1 -55 2 -104 6 -108 6 -6 207 -54 229
-55 4 0 9 64 12 143 6 204 26 267 183 599 107 227 126 283 132 388 8 150 -34
254 -199 502 -156 232 -211 343 -229 456 -22 137 18 254 146 419 140 181 169
237 211 403 5 21 19 40 35 49 24 14 36 13 135 -12 143 -36 242 -36 381 -1 149
38 158 34 192 -100 28 -112 46 -142 203 -351 119 -157 158 -272 137 -399 -20
-122 -52 -189 -200 -416 -188 -288 -231 -384 -231 -520 0 -122 7 -141 189
-535 105 -227 132 -334 132 -511 0 -85 3 -114 13 -114 24 1 218 47 225 55 4 4
7 53 6 108 -1 90 -5 115 -38 211 -21 60 -84 206 -141 325 -123 257 -146 320
-153 428 -10 156 32 263 203 528 188 290 221 372 213 526 -7 115 -44 190 -184
374 -172 226 -210 323 -201 515 5 133 30 216 141 477 110 257 136 347 143 488
12 250 -54 475 -199 673 -26 37 -48 70 -48 74 0 32 89 -34 172 -127 215 -240
299 -569 224 -875 -14 -61 -48 -152 -141 -375 -53 -127 -85 -262 -85 -354 0
-155 42 -247 216 -471 270 -349 270 -501 -2 -920 -173 -267 -209 -357 -201
-499 6 -115 23 -160 145 -401 151 -296 188 -397 201 -550 l6 -76 113 44 c128
51 126 46 97 172 -23 97 -46 151 -185 425 -134 265 -153 319 -152 437 0 123
47 236 191 461 168 264 207 363 198 501 -7 122 -50 205 -208 406 -165 211
-211 311 -210 463 0 123 23 223 98 432 90 250 105 321 105 480 0 256 -66 444
-233 668 -32 42 -54 77 -49 77 14 0 102 -74 161 -136 175 -186 271 -427 270
-684 0 -155 -18 -245 -95 -472 -69 -206 -92 -324 -83 -416 9 -83 69 -195 192
-357 191 -251 236 -342 237 -480 2 -136 -40 -245 -190 -493 -148 -245 -182
-325 -182 -433 0 -88 32 -175 156 -424 122 -247 161 -347 171 -437 l6 -57 99
52 98 52 -6 40 c-11 72 -60 180 -146 326 -109 184 -131 228 -158 318 -28 91
-24 189 10 271 42 98 47 98 42 5 -8 -145 35 -243 222 -503 95 -133 149 -231
169 -310 l13 -52 60 41 c32 23 86 62 119 87 33 25 62 47 64 48 8 6 -47 83 -97
136 l-54 57 38 50 c22 28 43 50 48 51 18 0 92 -69 136 -128 25 -34 47 -61 50
-62 3 0 48 42 99 94 l94 95 -18 28 c-33 51 -152 161 -189 174 -20 7 -35 16
-34 19 2 3 18 33 37 67 32 59 34 61 60 52 59 -23 111 -61 183 -138 l77 -80 48
57 c27 31 65 77 85 102 l36 46 -104 96 c-79 73 -117 102 -159 117 -86 32 -91
31 -126 -48 -20 -44 -40 -73 -56 -82 -33 -18 -126 -15 -207 7 -134 36 -364
169 -445 258 l-24 26 61 127 c70 148 90 211 99 308 11 132 -32 229 -202 454
-199 265 -228 325 -228 466 1 112 13 178 64 347 59 196 79 309 79 435 -1 222
-72 428 -225 650 -75 108 -61 109 45 2 215 -218 328 -527 299 -825 -11 -118
-13 -131 -71 -344 -25 -93 -41 -177 -45 -236 -5 -84 -4 -96 20 -148 28 -61 87
-146 217 -316 146 -189 200 -301 200 -411 0 -55 2 -59 43 -94 107 -92 273
-166 424 -186 48 -7 90 -14 91 -15 2 -1 -8 -43 -22 -93 -14 -49 -26 -92 -26
-94 0 -2 19 -7 41 -11 70 -11 142 -52 239 -136 51 -44 100 -85 109 -90 15 -7
29 10 89 109 40 65 72 121 72 123 0 3 -18 10 -39 17 -37 11 -88 45 -206 141
-61 48 -140 80 -201 80 -36 0 -45 3 -41 14 3 8 11 51 18 96 l13 82 67 -4 c87
-7 166 -44 288 -137 59 -45 113 -77 144 -86 28 -8 52 -13 55 -11 2 3 28 62 58
133 l53 128 -48 6 c-94 12 -140 33 -303 140 -94 61 -189 99 -250 99 l-38 0 0
113 0 113 68 -7 c89 -10 160 -38 268 -105 49 -30 123 -72 164 -92 65 -32 85
-37 144 -37 l70 0 27 105 c14 58 29 117 33 133 l6 27 -69 0 c-102 0 -163 18
-286 82 -271 141 -309 158 -386 170 l-75 12 -21 100 c-12 56 -25 111 -29 124
-6 21 -4 22 59 22 89 0 179 -30 327 -108 259 -137 302 -152 429 -152 l89 0 6
48 c3 26 8 80 12 120 l6 72 -73 0 c-73 0 -186 19 -244 41 -16 6 -115 53 -220
105 -207 102 -306 134 -414 134 l-66 0 -66 139 -67 140 76 7 c88 8 204 -6 292
-36 34 -12 128 -54 210 -95 186 -93 255 -121 346 -140 72 -15 189 -20 216 -10
25 10 -6 353 -53 580 -134 646 -432 1208 -889 1678 -277 285 -534 477 -874
653 -441 227 -865 343 -1366 374 -181 11 -214 11 -405 -1z m305 -405 c46 -107
88 -198 93 -201 5 -3 98 -12 206 -19 108 -8 205 -15 216 -17 15 -1 -22 -39
-146 -149 l-167 -148 74 -191 c40 -105 75 -193 77 -196 3 -2 31 19 63 48 127
111 286 195 465 243 97 26 228 50 236 43 2 -3 -21 -44 -50 -93 -87 -143 -217
-416 -217 -456 0 -4 30 13 68 38 127 86 289 149 443 174 117 19 119 16 59 -63
-88 -116 -185 -272 -259 -416 -39 -76 -78 -141 -86 -144 -8 -4 -58 13 -112 37
-224 99 -403 154 -648 197 -115 21 -161 23 -405 23 -244 0 -290 -2 -405 -23
-245 -43 -424 -98 -648 -197 -54 -24 -104 -41 -112 -37 -8 3 -47 68 -86 144
-74 144 -171 300 -259 416 -60 79 -58 82 59 63 154 -25 316 -88 444 -174 37
-25 67 -42 67 -38 0 40 -130 313 -217 456 -29 49 -52 90 -50 93 8 7 139 -17
236 -43 180 -49 338 -132 465 -244 44 -38 61 -48 67 -38 14 25 139 360 139
372 0 7 -73 78 -162 157 -122 108 -158 145 -143 146 11 2 108 9 216 17 108 7
201 16 206 19 5 3 47 94 93 201 46 108 86 196 90 196 4 0 44 -88 90 -196z
m-2631 -1310 c123 -113 231 -302 263 -460 6 -30 14 -53 17 -52 224 109 267
124 411 137 111 10 222 -1 320 -31 l72 -23 -98 -76 c-177 -136 -339 -301 -482
-491 -28 -37 -54 -74 -59 -83 -8 -14 -15 -14 -74 0 -92 21 -229 19 -325 -5
-43 -11 -146 -50 -229 -86 -279 -123 -400 -156 -509 -140 -25 4 -46 12 -46 18
0 6 26 38 57 72 85 91 202 241 278 355 184 277 275 544 275 810 0 154 14 160
129 55z m5214 -92 c6 -162 31 -286 87 -428 84 -212 260 -478 470 -709 l64 -69
-40 -9 c-58 -13 -182 -1 -255 24 -35 12 -138 55 -229 94 -91 40 -196 83 -235
95 -95 30 -265 38 -355 16 l-65 -16 -22 28 c-12 15 -59 74 -103 131 -137 173
-297 329 -474 462 l-59 44 73 23 c96 30 204 40 317 31 144 -12 189 -27 414
-137 3 -1 11 22 17 52 28 138 114 301 221 418 64 70 139 122 156 108 8 -7 14
-61 18 -158z m-2468 -57 c33 -9 98 -34 144 -57 111 -53 223 -162 271 -262 18
-38 28 -72 23 -77 -4 -4 -28 -1 -53 7 -111 39 -278 25 -373 -31 -90 -52 -117
-112 -117 -262 0 -85 27 -213 45 -213 16 0 39 27 64 77 32 65 44 67 151 34 58
-18 122 -13 175 13 44 23 51 24 75 11 36 -19 50 -61 50 -154 0 -109 -32 -228
-94 -356 -122 -249 -312 -422 -504 -457 -254 -47 -559 218 -688 597 -32 96
-45 291 -22 335 22 41 58 47 130 22 76 -27 102 -27 194 -3 61 16 77 17 109 5
21 -7 42 -17 48 -23 12 -12 47 -15 47 -3 0 4 5 36 10 72 15 97 -3 217 -38 253
-92 96 -295 135 -442 83 -25 -8 -49 -11 -53 -7 -5 5 5 39 23 77 48 100 160
209 271 262 77 37 158 63 234 76 57 9 260 -3 320 -19z m-561 -510 c55 -26 106
-74 106 -101 0 -17 5 -17 -61 3 -30 9 -89 17 -134 17 -66 1 -87 -3 -119 -22
-36 -22 -39 -22 -52 -5 -39 51 -23 109 36 131 53 19 158 8 224 -23z m936 22
c60 -21 75 -79 35 -131 -13 -18 -16 -18 -32 -4 -10 9 -37 22 -61 29 -41 12
-102 7 -214 -17 -26 -6 -28 -4 -28 23 0 75 190 138 300 100z"/>
<path d="M3317 5574 c-98 -75 -175 -140 -170 -144 4 -5 31 -4 58 1 98 18 413
21 530 6 61 -8 114 -11 118 -7 7 6 -338 280 -353 280 -3 0 -85 -61 -183 -136z"/>
<path d="M3370 3954 c-58 -25 -48 -43 39 -72 81 -27 98 -27 182 0 77 24 90 40
53 64 -30 20 -231 26 -274 8z"/>
<path d="M3236 3732 c-7 -12 132 -147 173 -167 48 -24 138 -22 187 3 50 26
180 157 165 166 -6 4 -68 3 -138 -3 -80 -6 -168 -6 -233 -1 -134 12 -148 12
-154 2z"/>
<path d="M5650 590 l0 -30 85 0 85 0 0 -230 0 -230 30 0 30 0 0 230 0 230 85
0 85 0 0 30 0 30 -200 0 -200 0 0 -30z"/>
<path d="M6120 360 l0 -260 30 0 30 0 0 217 c0 119 4 213 8 208 5 -6 49 -104
97 -218 76 -178 92 -207 109 -205 15 2 39 50 110 216 l91 213 3 -215 2 -216
30 0 30 0 0 261 0 260 -46 -3 -45 -3 -86 -197 c-47 -109 -89 -196 -92 -193 -4
2 -45 92 -91 199 l-84 196 -48 0 -48 0 0 -260z"/>
</g>
</svg>
